<svg preserveAspectRatio="none" width="100%" height="100%" overflow="visible" style="display: block;" viewBox="0 0 36 36" fill="none" xmlns="http://www.w3.org/2000/svg">
<g id="tiktok-brands-solid-full 1">
<path id="Vector" d="M29.3177 15.6765C27.1002 15.6815 24.9331 14.9911 23.1288 13.7009V22.7071C23.1288 24.3753 22.6198 26.0031 21.6673 27.374C20.7147 28.7448 19.3691 29.7931 17.8067 30.3777C16.2444 30.9624 14.5409 31.0581 12.9231 30.6448C11.3053 30.2316 9.85385 29.3395 8.75516 28.0846C7.65647 26.8297 6.97609 25.2623 6.78962 23.6042C6.60314 21.9461 6.93577 20.2728 7.72703 18.8062C8.51829 17.3396 9.74297 16.1502 11.2348 15.3943C12.7266 14.6383 14.4048 14.3611 16.0579 14.5879V19.1187C15.3019 18.8818 14.4905 18.8869 13.7396 19.1389C12.9886 19.3909 12.3335 19.8747 11.8748 20.5147C11.4162 21.1548 11.1692 21.9309 11.1743 22.7272C11.1793 23.5235 11.4364 24.2896 11.9051 24.9297C12.3738 25.5697 13.034 26.0435 13.79 26.2854C14.5459 26.5273 15.3574 26.5273 16.1083 26.2803C16.8592 26.0334 17.5195 25.5546 17.9831 24.9145C18.4468 24.2745 18.6988 23.4983 18.6988 22.7071V5.09785H23.1338C23.1288 5.4708 23.1641 5.84879 23.2296 6.2167C23.3858 7.03819 23.7033 7.82441 24.1721 8.51991C24.6408 9.21541 25.2455 9.81011 25.9461 10.2637C26.949 10.9239 28.1233 11.2767 29.3228 11.2767V15.6815L29.3177 15.6765Z" fill="var(--fill-0, white)"/>
</g>
</svg>
