<svg preserveAspectRatio="none" width="100%" height="100%" overflow="visible" style="display: block;" viewBox="0 0 121.844 40" fill="none" xmlns="http://www.w3.org/2000/svg">
<g id="Vector">
<path id="Vector_2" d="M27.9992 30.3592V0.719062H17.8456V0.821623C20.102 2.15492 19.6918 4.71895 19.6918 7.07786V30.2567H27.9992V30.3592ZM51.4857 0.924184C53.4344 2.77029 53.4344 4.71895 53.4344 7.28298V18.8724L39.6912 0.924184V0.719062H30.3581V0.821623C32.8196 3.59078 33.0247 4.82151 33.0247 8.20603V30.2567H37.64V11.7957H37.7425L47.3833 24.7184C48.9217 26.667 51.7934 31.1797 58.0496 31.0772V0.719062H51.3832V0.924184H51.4857ZM72.4082 15.0776L78.3568 26.9747C79.6901 29.5388 81.4336 30.3592 84.4079 30.2567H91.0743C89.3308 29.0259 87.6898 26.5645 86.4591 24.6158L81.1259 15.693C83.5874 14.9751 86.4591 13.5392 86.254 7.89834C85.9463 1.9498 81.0233 0.719062 77.126 0.719062H61.3316V0.821623C63.4854 2.15492 63.1777 4.71895 63.1777 7.07786V30.1541H71.28V5.12919H74.4594C77.2286 5.12919 78.8696 6.56505 78.8696 9.53932C78.8696 12.5136 76.8183 15.1802 72.4082 15.0776ZM105.125 0.00113336C95.9973 0.103695 88.7154 7.07786 88.818 15.5904C88.9206 24.103 96.4075 30.8721 105.535 30.7695C114.663 30.6669 121.945 23.6928 121.843 15.1802C121.74 6.77017 114.253 -0.101428 105.125 0.00113336ZM105.433 26.3594C101.023 26.3594 97.4331 21.539 97.4331 15.4879C97.3306 9.43676 100.818 4.51383 105.228 4.41126C109.638 4.3087 113.228 9.23164 113.228 15.2828C113.228 21.4364 109.843 26.3594 105.433 26.3594ZM0 40C11.9997 39.0769 14.5637 33.5386 14.5637 26.4619V0.821623H4.41013V0.924184C4.41013 0.924184 6.25623 1.74467 6.25623 5.02663V27.0773C6.25623 34.4617 4.61525 37.1283 0.102561 39.1795L0 40Z" fill="var(--fill-0, white)"/>
</g>
</svg>
