<svg preserveAspectRatio="none" width="100%" height="100%" overflow="visible" style="display: block;" viewBox="0 0 36 36" fill="none" xmlns="http://www.w3.org/2000/svg">
<g id="youtube-brands-solid-full 1">
<path id="Vector" d="M32.7206 10.5806C32.3719 9.2475 31.3256 8.20125 30.0037 7.84687C27.6131 7.2 18.0056 7.2 18.0056 7.2C18.0056 7.2 8.3981 7.2 6.00185 7.84687C4.67998 8.20125 3.63935 9.2475 3.28498 10.5806C2.64373 12.9938 2.64373 18.0225 2.64373 18.0225C2.64373 18.0225 2.64373 23.0513 3.28498 25.4644C3.63935 26.7919 4.67998 27.7988 6.00185 28.1531C8.3981 28.8 18.0056 28.8 18.0056 28.8C18.0056 28.8 27.6131 28.8 30.0094 28.1531C31.3312 27.7988 32.3719 26.7919 32.7262 25.4644C33.3675 23.0513 33.3675 18.0225 33.3675 18.0225C33.3675 18.0225 33.3675 12.9938 32.7262 10.5806H32.7206ZM14.8612 22.59V13.455L22.8881 18.0225L14.8612 22.59Z" fill="var(--fill-0, white)"/>
</g>
</svg>
