<svg preserveAspectRatio="none" width="100%" height="100%" overflow="visible" style="display: block;" viewBox="0 0 36 36" fill="none" xmlns="http://www.w3.org/2000/svg">
<g id="instagram-brands-solid-full 1">
<path id="Vector" d="M18.0169 11.5314C14.445 11.5202 11.5425 14.4114 11.5313 17.9833C11.52 21.5552 14.4113 24.4577 17.9831 24.4689C21.555 24.4802 24.4575 21.5889 24.4688 18.0171C24.48 14.4452 21.5888 11.5427 18.0169 11.5314ZM17.9831 13.8039C20.3006 13.7927 22.185 15.6658 22.1963 17.9833C22.2075 20.3008 20.3344 22.1852 18.0169 22.1964C15.6994 22.2077 13.815 20.3346 13.8038 18.0171C13.7925 15.6996 15.6656 13.8152 17.9831 13.8039ZM23.2369 11.2671C23.2369 10.4346 23.9119 9.75955 24.7444 9.75955C25.5769 9.75955 26.2519 10.4346 26.2519 11.2671C26.2519 12.0996 25.5769 12.7746 24.7444 12.7746C23.9119 12.7746 23.2369 12.0996 23.2369 11.2671ZM30.5325 12.7971C30.4369 10.7777 29.9756 8.98893 28.4963 7.51518C27.0225 6.04143 25.2338 5.58018 23.2144 5.47893C21.1331 5.3608 14.895 5.3608 12.8138 5.47893C10.8 5.57455 9.01126 6.0358 7.53189 7.50955C6.05251 8.9833 5.59689 10.7721 5.49564 12.7914C5.37751 14.8727 5.37751 21.1108 5.49564 23.192C5.59126 25.2114 6.05251 27.0002 7.53189 28.4739C9.01126 29.9477 10.7944 30.4089 12.8138 30.5102C14.895 30.6283 21.1331 30.6283 23.2144 30.5102C25.2338 30.4146 27.0225 29.9533 28.4963 28.4739C29.97 27.0002 30.4313 25.2114 30.5325 23.192C30.6506 21.1108 30.6506 14.8783 30.5325 12.7971ZM27.8438 25.4252C27.405 26.5277 26.5556 27.3771 25.4475 27.8214C23.7881 28.4796 19.8506 28.3277 18.0169 28.3277C16.1831 28.3277 12.24 28.4739 10.5863 27.8214C9.48376 27.3827 8.63439 26.5333 8.19001 25.4252C7.53189 23.7658 7.68376 19.8283 7.68376 17.9946C7.68376 16.1608 7.53751 12.2177 8.19001 10.5639C8.62876 9.46143 9.47814 8.61205 10.5863 8.16768C12.2456 7.50955 16.1831 7.66143 18.0169 7.66143C19.8506 7.66143 23.7938 7.51518 25.4475 8.16768C26.55 8.60643 27.3994 9.4558 27.8438 10.5639C28.5019 12.2233 28.35 16.1608 28.35 17.9946C28.35 19.8283 28.5019 23.7714 27.8438 25.4252Z" fill="var(--fill-0, white)"/>
</g>
</svg>
