<svg preserveAspectRatio="none" width="100%" height="100%" overflow="visible" style="display: block;" viewBox="0 0 32 32" fill="none" xmlns="http://www.w3.org/2000/svg">
<g id="language_24dp_E3E3E3_FILL0_wght400_GRAD0_opsz24 1">
<path id="Vector" d="M10.8333 28.2833C9.21111 27.5833 7.79444 26.6278 6.58333 25.4167C5.37222 24.2056 4.41667 22.7889 3.71667 21.1667C3.01667 19.5444 2.66667 17.8167 2.66667 15.9833C2.66667 14.15 3.01667 12.4278 3.71667 10.8167C4.41667 9.20556 5.37222 7.79444 6.58333 6.58333C7.79444 5.37222 9.21111 4.41667 10.8333 3.71667C12.4556 3.01667 14.1833 2.66667 16.0167 2.66667C17.85 2.66667 19.5722 3.01667 21.1833 3.71667C22.7944 4.41667 24.2056 5.37222 25.4167 6.58333C26.6278 7.79444 27.5833 9.20556 28.2833 10.8167C28.9833 12.4278 29.3333 14.15 29.3333 15.9833C29.3333 17.8167 28.9833 19.5444 28.2833 21.1667C27.5833 22.7889 26.6278 24.2056 25.4167 25.4167C24.2056 26.6278 22.7944 27.5833 21.1833 28.2833C19.5722 28.9833 17.85 29.3333 16.0167 29.3333C14.1833 29.3333 12.4556 28.9833 10.8333 28.2833ZM16 26.6C16.5778 25.8 17.0778 24.9667 17.5 24.1C17.9222 23.2333 18.2667 22.3111 18.5333 21.3333H13.4667C13.7333 22.3111 14.0778 23.2333 14.5 24.1C14.9222 24.9667 15.4222 25.8 16 26.6ZM12.5333 26.0667C12.1333 25.3333 11.7833 24.5722 11.4833 23.7833C11.1833 22.9944 10.9333 22.1778 10.7333 21.3333H6.8C7.44444 22.4444 8.25 23.4111 9.21667 24.2333C10.1833 25.0556 11.2889 25.6667 12.5333 26.0667ZM19.4667 26.0667C20.7111 25.6667 21.8167 25.0556 22.7833 24.2333C23.75 23.4111 24.5556 22.4444 25.2 21.3333H21.2667C21.0667 22.1778 20.8167 22.9944 20.5167 23.7833C20.2167 24.5722 19.8667 25.3333 19.4667 26.0667ZM5.66667 18.6667H10.2C10.1333 18.2222 10.0833 17.7833 10.05 17.35C10.0167 16.9167 10 16.4667 10 16C10 15.5333 10.0167 15.0833 10.05 14.65C10.0833 14.2167 10.1333 13.7778 10.2 13.3333H5.66667C5.55556 13.7778 5.47222 14.2167 5.41667 14.65C5.36111 15.0833 5.33333 15.5333 5.33333 16C5.33333 16.4667 5.36111 16.9167 5.41667 17.35C5.47222 17.7833 5.55556 18.2222 5.66667 18.6667ZM12.8667 18.6667H19.1333C19.2 18.2222 19.25 17.7833 19.2833 17.35C19.3167 16.9167 19.3333 16.4667 19.3333 16C19.3333 15.5333 19.3167 15.0833 19.2833 14.65C19.25 14.2167 19.2 13.7778 19.1333 13.3333H12.8667C12.8 13.7778 12.75 14.2167 12.7167 14.65C12.6833 15.0833 12.6667 15.5333 12.6667 16C12.6667 16.4667 12.6833 16.9167 12.7167 17.35C12.75 17.7833 12.8 18.2222 12.8667 18.6667ZM21.8 18.6667H26.3333C26.4444 18.2222 26.5278 17.7833 26.5833 17.35C26.6389 16.9167 26.6667 16.4667 26.6667 16C26.6667 15.5333 26.6389 15.0833 26.5833 14.65C26.5278 14.2167 26.4444 13.7778 26.3333 13.3333H21.8C21.8667 13.7778 21.9167 14.2167 21.95 14.65C21.9833 15.0833 22 15.5333 22 16C22 16.4667 21.9833 16.9167 21.95 17.35C21.9167 17.7833 21.8667 18.2222 21.8 18.6667ZM21.2667 10.6667H25.2C24.5556 9.55556 23.75 8.58889 22.7833 7.76667C21.8167 6.94444 20.7111 6.33333 19.4667 5.93333C19.8667 6.66667 20.2167 7.42778 20.5167 8.21667C20.8167 9.00556 21.0667 9.82222 21.2667 10.6667ZM13.4667 10.6667H18.5333C18.2667 9.68889 17.9222 8.76667 17.5 7.9C17.0778 7.03333 16.5778 6.2 16 5.4C15.4222 6.2 14.9222 7.03333 14.5 7.9C14.0778 8.76667 13.7333 9.68889 13.4667 10.6667ZM6.8 10.6667H10.7333C10.9333 9.82222 11.1833 9.00556 11.4833 8.21667C11.7833 7.42778 12.1333 6.66667 12.5333 5.93333C11.2889 6.33333 10.1833 6.94444 9.21667 7.76667C8.25 8.58889 7.44444 9.55556 6.8 10.6667Z" fill="var(--fill-0, white)"/>
</g>
</svg>
