<svg width="645" height="212" viewBox="0 0 645 212" fill="none" xmlns="http://www.w3.org/2000/svg">
<path d="M148.207 160.699V3.80616H94.4616V4.34904C106.405 11.4065 104.233 24.9786 104.233 37.4649V160.156H148.207V160.699ZM272.527 4.89193C282.842 14.6638 282.842 24.9786 282.842 38.5506V99.8964L210.096 4.89193V3.80616H160.693V4.34904C173.722 19.0069 174.808 25.5215 174.808 43.4366V160.156H199.238V62.4375H199.781L250.812 130.841C258.955 141.155 274.156 165.042 307.272 164.499V3.80616H271.984V4.89193H272.527ZM383.275 79.8097L414.762 142.784C421.82 156.356 431.049 160.699 446.792 160.156H482.08C472.851 153.642 464.165 140.613 457.65 130.298L429.42 83.067C442.449 79.2668 457.65 71.6665 456.564 41.8079C454.936 10.3207 428.877 3.80616 408.248 3.80616H324.644V4.34904C336.044 11.4065 334.416 24.9786 334.416 37.4649V159.613H377.303V27.1501H394.133C408.791 27.1501 417.477 34.7505 417.477 50.4941C417.477 66.2377 406.619 80.3526 383.275 79.8097ZM556.455 0.0059839C508.138 0.548866 469.593 37.4649 470.136 82.5241C470.679 127.583 510.31 163.414 558.626 162.871C606.943 162.328 645.487 125.412 644.945 80.3526C644.402 35.8362 604.771 -0.536899 556.455 0.0059839ZM558.083 139.527C534.739 139.527 515.738 114.011 515.738 81.9813C515.196 49.9512 533.654 23.8928 556.998 23.3499C580.341 22.8071 599.342 48.8654 599.342 80.8955C599.342 113.468 581.427 139.527 558.083 139.527ZM0 211.73C63.5173 206.844 77.0893 177.529 77.0893 140.07V4.34904H23.344V4.89193C23.344 4.89193 33.1158 9.23499 33.1158 26.6072V143.327C33.1158 182.415 24.4297 196.529 0.542883 207.387L0 211.73Z" fill="white"/>
</svg>
