<svg preserveAspectRatio="none" width="100%" height="100%" overflow="visible" style="display: block;" viewBox="0 0 149.395 49.0448" fill="none" xmlns="http://www.w3.org/2000/svg">
<path id="Vector" d="M34.3304 37.2241V0.881657H21.8809V1.00741C24.6475 2.64219 24.1445 5.786 24.1445 8.67831V37.0984H34.3304V37.2241ZM63.1277 1.13316C65.517 3.39671 65.517 5.786 65.517 8.92981V23.1398L48.6662 1.13316V0.881657H37.2227V1.00741C40.2408 4.40273 40.4923 5.91176 40.4923 10.0616V37.0984H46.1511V14.4629H46.2769L58.0976 30.3077C59.9839 32.697 63.505 38.2301 71.1759 38.1044V0.881657H63.002V1.13316H63.1277ZM88.7812 18.487L96.0749 33.0743C97.7097 36.2181 99.8474 37.2241 103.494 37.0984H111.668C109.53 35.5893 107.518 32.5713 106.009 30.182L99.4702 19.2415C102.488 18.3612 106.009 16.6007 105.758 9.68433C105.381 2.39069 99.3444 0.881657 94.5658 0.881657H75.2V1.00741C77.8408 2.64219 77.4635 5.786 77.4635 8.67831V36.9726H87.398V6.28901H91.2963C94.6916 6.28901 96.7036 8.04955 96.7036 11.6964C96.7036 15.3432 94.1886 18.6128 88.7812 18.487ZM128.896 0.00138964C117.704 0.127142 108.776 8.67831 108.902 19.1158C109.027 29.5532 118.207 37.8529 129.399 37.7271C140.591 37.6014 149.52 29.0502 149.394 18.6128C149.268 8.30105 140.088 -0.124363 128.896 0.00138964ZM129.274 32.3198C123.866 32.3198 119.465 26.4094 119.465 18.99C119.339 11.5706 123.615 5.5345 129.022 5.40874C134.429 5.28299 138.831 11.3191 138.831 18.7385C138.831 26.2837 134.681 32.3198 129.274 32.3198ZM0 49.0448C14.713 47.9131 17.8568 41.1224 17.8568 32.4455V1.00741H5.40736V1.13316C5.40736 1.13316 7.6709 2.13918 7.6709 6.16326V33.2C7.6709 42.2542 5.65886 45.5238 0.125752 48.0388L0 49.0448Z" fill="var(--fill-0, white)"/>
</svg>
