<svg preserveAspectRatio="none" width="100%" height="100%" overflow="visible" style="display: block;" viewBox="0 0 60.9219 20" fill="none" xmlns="http://www.w3.org/2000/svg">
<g id="Vector">
<path id="Vector_2" d="M13.9996 15.1796V0.359531H8.92282V0.410811C10.051 1.07746 9.84588 2.35947 9.84588 3.53893V15.1283H13.9996V15.1796ZM25.7429 0.462092C26.7172 1.38514 26.7172 2.35947 26.7172 3.64149V9.4362L19.8456 0.462092V0.359531H15.1791V0.410811C16.4098 1.79539 16.5124 2.41075 16.5124 4.10301V15.1283H18.82V5.89784H18.8713L23.6916 12.3592C24.4608 13.3335 25.8967 15.5899 29.0248 15.5386V0.359531H25.6916V0.462092H25.7429ZM36.2041 7.53881L39.1784 13.4874C39.845 14.7694 40.7168 15.1796 42.2039 15.1283H45.5372C44.6654 14.513 43.8449 13.2822 43.2295 12.3079L40.563 7.8465C41.7937 7.48753 43.2295 6.7696 43.127 3.94917C42.9731 0.974898 40.5117 0.359531 38.563 0.359531H30.6658V0.410811C31.7427 1.07746 31.5888 2.35947 31.5888 3.53893V15.0771H35.64V2.5646H37.2297C38.6143 2.5646 39.4348 3.28252 39.4348 4.76966C39.4348 6.2568 38.4092 7.59009 36.2041 7.53881ZM52.5626 0.00056668C47.9986 0.0518473 44.3577 3.53893 44.409 7.79522C44.4603 12.0515 48.2038 15.436 52.7677 15.3847C57.3317 15.3335 60.9726 11.8464 60.9214 7.59009C60.8701 3.38509 57.1266 -0.0507139 52.5626 0.00056668ZM52.7165 13.1797C50.5114 13.1797 48.7166 10.7695 48.7166 7.74394C48.6653 4.71838 50.4088 2.25691 52.6139 2.20563C54.819 2.15435 56.6138 4.61582 56.6138 7.64138C56.6138 10.7182 54.9215 13.1797 52.7165 13.1797ZM0 20C5.99983 19.5385 7.28185 16.7693 7.28185 13.231V0.410811H2.20507V0.462092C2.20507 0.462092 3.12812 0.872337 3.12812 2.51332V13.5386C3.12812 17.2308 2.30763 18.5641 0.0512806 19.5898L0 20Z" fill="var(--fill-0, #FF0033)"/>
</g>
</svg>
