<?xml version="1.0" encoding="utf-8"?>
<!-- Generator: Adobe Illustrator 25.4.2, SVG Export Plug-In . SVG Version: 6.00 Build 0)  -->
<svg version="1.1" id="Layer_1" xmlns="http://www.w3.org/2000/svg" xmlns:xlink="http://www.w3.org/1999/xlink" x="0px" y="0px"
	 viewBox="0 0 32 32" style="enable-background:new 0 0 32 32;" xml:space="preserve">
<style type="text/css">
	.st0{fill:url(#SVGID_1_);}
	.st1{fill:url(#SVGID_00000144297796644162432330000014628929158493664179_);}
	.st2{fill:url(#SVGID_00000052786310242598340130000002426577751225199268_);}
</style>
<linearGradient id="SVGID_1_" gradientUnits="userSpaceOnUse" x1="9.5657" y1="488.439" x2="23.007" y2="501.8804" gradientTransform="matrix(1 0 0 -1 0 512)">
	<stop  offset="0" style="stop-color:#B5053C"/>
	<stop  offset="0.233" style="stop-color:#C90441"/>
	<stop  offset="0.737" style="stop-color:#F0014B"/>
	<stop  offset="1" style="stop-color:#FF004F"/>
</linearGradient>
<path class="st0" d="M24.6,11.7c-2.5,0-4.5-2-4.5-4.5c0,0,0,0,0,0h-3.2v12.7c0,1.5-1.2,2.7-2.8,2.7c-1.5,0-2.7-1.2-2.7-2.8
	s1.2-2.7,2.8-2.7c0.3,0,0.5,0,0.8,0.1v-3.1c-3.2-0.4-6.1,1.8-6.6,5s1.8,6.1,5,6.6s6.1-1.8,6.6-5c0-0.3,0.1-0.5,0.1-0.8l0.1-6.4
	c1.3,1,2.9,1.5,4.6,1.5L24.6,11.7z"/>
<linearGradient id="SVGID_00000029745635090844377530000007280315143489744038_" gradientUnits="userSpaceOnUse" x1="8.5121" y1="489.1197" x2="22.6702" y2="503.2778" gradientTransform="matrix(1 0 0 -1 0 512)">
	<stop  offset="0" style="stop-color:#00B2C9"/>
	<stop  offset="0.283" style="stop-color:#00C8D4"/>
	<stop  offset="0.741" style="stop-color:#00E6E4"/>
	<stop  offset="1" style="stop-color:#00F1EA"/>
</linearGradient>
<path style="fill:url(#SVGID_00000029745635090844377530000007280315143489744038_);" d="M23.8,10.8c-2.5,0-4.5-2-4.5-4.5H16V19
	c0,1.5-1.2,2.7-2.8,2.7c-1.5,0-2.7-1.2-2.7-2.8c0-1.5,1.2-2.7,2.8-2.7c0.3,0,0.5,0,0.8,0.1v-3.1c-3.2-0.4-6.1,1.8-6.6,5
	s1.8,6.1,5,6.6s6.1-1.8,6.6-5c0-0.3,0.1-0.5,0.1-0.8l0.1-6.4c1.3,1,2.9,1.5,4.6,1.5L23.8,10.8z"/>
<linearGradient id="SVGID_00000070823171738367771750000015487934194489315467_" gradientUnits="userSpaceOnUse" x1="0.5801" y1="480.3203" x2="31.9191" y2="511.6594" gradientTransform="matrix(1 0 0 -1 0 512)">
	<stop  offset="0" style="stop-color:#DDE3E4"/>
	<stop  offset="1" style="stop-color:#FCF7F7"/>
</linearGradient>
<path style="fill:url(#SVGID_00000070823171738367771750000015487934194489315467_);" d="M23.8,11.6c-1.1-0.2-2.1-0.8-2.8-1.8
	c-0.9-0.7-1.4-1.6-1.6-2.7h-2.5v12.7c0,1.5-1.2,2.8-2.8,2.8c-1,0-1.9-0.5-2.4-1.3c-1.3-0.8-1.6-2.5-0.8-3.8c0.7-1,1.9-1.5,3.1-1.1
	V14c-3.2,0-5.8,2.7-5.8,5.9c0,1.3,0.5,2.5,1.2,3.5c2.5,2.1,6.1,1.7,8.2-0.7c0.9-1,1.4-2.4,1.4-3.7l0.1-6.4c1.3,1,2.9,1.5,4.6,1.5
	L23.8,11.6z"/>
</svg>
