<?xml version="1.0" encoding="utf-8"?>
<!-- Generator: Adobe Illustrator 21.1.0, SVG Export Plug-In . SVG Version: 6.00 Build 0)  -->
<svg version="1.1" id="レイヤー_4" xmlns="http://www.w3.org/2000/svg" xmlns:xlink="http://www.w3.org/1999/xlink" x="0px"
	 y="0px" viewBox="0 0 364.1 56.6" style="enable-background:new 0 0 364.1 56.6;" xml:space="preserve">
<style type="text/css">
	.st0{fill:#2E9834;}
	.st1{fill:#C7003A;}
</style>
<path d="M4.3,17.7c2.5-2.6,5.7-3.9,9.6-3.9c5.2,0,9,1.7,11.4,5.2c1.3,1.9,2,3.9,2.1,5.8H21c-0.4-1.5-0.9-2.6-1.6-3.4
	c-1.2-1.4-2.9-2-5.2-2c-2.3,0-4.2,1-5.5,2.9c-1.3,1.9-2,4.6-2,8.1c0,3.5,0.7,6.1,2.1,7.9c1.4,1.7,3.2,2.6,5.4,2.6
	c2.2,0,3.9-0.7,5.1-2.2c0.6-0.8,1.2-2,1.6-3.6h6.5c-0.6,3.4-2,6.2-4.3,8.3c-2.3,2.1-5.2,3.2-8.8,3.2c-4.4,0-7.9-1.4-10.5-4.3
	C1.3,39.4,0,35.4,0,30.4C0,24.9,1.4,20.7,4.3,17.7"/>
<path d="M48.8,22.7c1.2,0.5,2.1,1.3,2.9,2.3c0.6,0.9,1,1.8,1.2,2.7c0.1,0.9,0.2,2.4,0.2,4.5v13.6h-6.2V31.6c0-1.2-0.2-2.3-0.6-3
	c-0.5-1.1-1.6-1.6-3.1-1.6c-1.6,0-2.8,0.5-3.6,1.6c-0.8,1.1-1.2,2.6-1.2,4.6v12.5h-6V14.6h6v11c0.9-1.3,1.9-2.3,3-2.8
	c1.1-0.5,2.4-0.8,3.6-0.8C46.4,22,47.7,22.2,48.8,22.7"/>
<path d="M67.9,31.7c1.1-0.1,1.9-0.3,2.4-0.5c0.9-0.4,1.3-0.9,1.3-1.7c0-0.9-0.3-1.6-1-2c-0.7-0.4-1.6-0.5-2.9-0.5
	c-1.4,0-2.5,0.4-3.1,1.1c-0.4,0.5-0.7,1.2-0.9,2.1h-5.8c0.1-2,0.7-3.7,1.7-5c1.6-2,4.4-3.1,8.3-3.1c2.5,0,4.8,0.5,6.8,1.5
	c2,1,3,2.9,3,5.7v10.6c0,0.7,0,1.6,0,2.7c0,2.2,0.9,3.2,0.9,3.2h-6.3c-0.2-0.5-0.3-0.9-0.4-1.3c-0.1-0.4-0.1-0.9-0.2-1.4
	c-0.8,0.9-1.8,1.7-2.9,2.3c-1.3,0.7-2.8,1.1-4.4,1.1c-2.1,0-3.8-0.6-5.2-1.8c-1.4-1.2-2.1-2.9-2.1-5.1c0-2.8,1.1-4.9,3.3-6.2
	c1.2-0.7,3-1.2,5.3-1.5L67.9,31.7z M71.6,34.5c-0.4,0.2-0.8,0.4-1.2,0.6c-0.4,0.2-0.9,0.3-1.6,0.4l-1.4,0.3
	c-1.3,0.2-2.2,0.5-2.8,0.8c-1,0.5-1.4,1.4-1.4,2.6c0,1,0.3,1.8,0.9,2.2c0.6,0.5,1.3,0.7,2.1,0.7c1.3,0,2.5-0.4,3.6-1.1
	c1.1-0.8,1.7-2.2,1.7-4.2V34.5z"/>
<rect x="83" y="14.5" width="6" height="31.3"/>
<rect x="95.1" y="14.5" width="6" height="31.3"/>
<path d="M122.1,23.1c1.6,0.7,2.9,1.9,4,3.4c0.9,1.4,1.6,3,1.8,4.8c0.2,1.1,0.2,2.6,0.2,4.6h-16.8c0.1,2.3,0.9,3.9,2.4,4.9
	c0.9,0.6,2,0.9,3.3,0.9c1.4,0,2.5-0.4,3.4-1.1c0.5-0.4,0.9-0.9,1.2-1.6h6.2c-0.2,1.4-0.9,2.8-2.2,4.2c-2.1,2.2-5,3.4-8.7,3.4
	c-3.1,0-5.8-0.9-8.1-2.8c-2.3-1.9-3.5-5-3.5-9.3c0-4,1.1-7.1,3.2-9.2c2.1-2.1,4.9-3.2,8.3-3.2C118.6,22,120.4,22.4,122.1,23.1
	 M113,28.3c-0.9,0.9-1.4,2.1-1.6,3.6h10.4c-0.1-1.6-0.6-2.8-1.6-3.7c-1-0.8-2.2-1.2-3.6-1.2C115.1,27,113.9,27.4,113,28.3"/>
<path d="M149.8,23.9c1.5,1.2,2.3,3.3,2.3,6.2v15.6h-6.2V31.7c0-1.2-0.2-2.1-0.5-2.8c-0.6-1.2-1.7-1.8-3.4-1.8c-2,0-3.4,0.9-4.2,2.6
	c-0.4,0.9-0.6,2.1-0.6,3.5v12.5h-6V22.7h5.9V26c0.8-1.2,1.5-2,2.2-2.6c1.2-0.9,2.8-1.4,4.7-1.4C146.3,22.1,148.3,22.7,149.8,23.9"/>
<path d="M199.2,23.1c1.6,0.7,2.9,1.9,4,3.4c0.9,1.4,1.6,3,1.8,4.8c0.2,1.1,0.2,2.6,0.2,4.6h-16.8c0.1,2.3,0.9,3.9,2.4,4.9
	c0.9,0.6,2,0.9,3.3,0.9c1.4,0,2.5-0.4,3.4-1.1c0.5-0.4,0.9-0.9,1.2-1.6h6.2c-0.2,1.4-0.9,2.8-2.2,4.2c-2.1,2.2-5,3.4-8.7,3.4
	c-3.1,0-5.8-0.9-8.1-2.8c-2.4-1.9-3.5-5-3.5-9.3c0-4,1.1-7.1,3.2-9.2c2.1-2.1,4.9-3.2,8.3-3.2C195.8,22,197.6,22.4,199.2,23.1
	 M190.2,28.3c-0.9,0.9-1.4,2.1-1.6,3.6H199c-0.1-1.6-0.6-2.8-1.6-3.7c-1-0.8-2.2-1.2-3.6-1.2C192.2,27,191,27.4,190.2,28.3"/>
<path d="M225.3,37.2c1.1,1.7,2.1,2.8,3.2,3.5c1,0.7,2.3,1,3.7,1c1.7,0,3-0.4,4-1.3c0.9-0.8,1.4-1.8,1.4-3c0-1-0.4-1.9-1.1-2.7
	c-0.8-0.8-2.5-1.5-5.1-2.2c-3.6-0.9-6.2-2.1-7.7-3.5c-1.9-1.7-2.9-3.9-2.9-6.4c0-2.7,1-5,2.9-6.8c1.9-1.8,4.6-2.7,8-2.7
	c1.9,0,3.6,0.3,5.1,1c1.5,0.6,2.8,1.5,3.8,2.5c0.7,0.7,1.4,1.6,2,2.7l-5.3,2.2c-0.9-1.3-1.8-2.2-2.8-2.8c-0.9-0.6-2-0.9-3.2-0.9
	c-1.4,0-2.6,0.4-3.4,1.2c-0.9,0.8-1.3,1.8-1.3,2.9c0,0.9,0.4,1.7,1.1,2.3c0.7,0.6,2.4,1.3,5.2,2c2.8,0.7,4.9,1.5,6.3,2.4
	c1.4,0.9,2.5,2.1,3.2,3.6c0.7,1.5,1.1,3,1.1,4.5c0,1.6-0.5,3.3-1.4,4.9c-0.9,1.7-2.3,2.9-4.1,3.8c-1.8,0.9-3.9,1.3-6.2,1.3
	c-2.2,0-4.1-0.4-5.8-1.1c-1.6-0.7-3-1.7-4.1-3c-0.7-0.8-1.5-1.9-2.2-3.4L225.3,37.2z"/>
<path d="M267,25.1c1.9,2,2.8,4.9,2.8,8.8c0,4.1-0.9,7.2-2.8,9.3c-1.8,2.1-4.2,3.2-7.1,3.2c-1.9,0-3.4-0.5-4.6-1.4
	c-0.7-0.5-1.3-1.2-2-2.2v12.1h-6V22.6h5.8V26c0.7-1,1.3-1.8,2.1-2.4c1.4-1,3-1.5,4.8-1.5C262.8,22.1,265.1,23.1,267,25.1
	 M262.3,29.4c-0.8-1.4-2.1-2.1-4-2.1c-2.2,0-3.7,1-4.6,3.1c-0.4,1.1-0.6,2.5-0.6,4.2c0,2.7,0.7,4.6,2.2,5.7c0.9,0.6,1.9,1,3,1
	c1.7,0,3-0.7,3.9-1.9c0.9-1.3,1.3-3,1.3-5.2C263.6,32.4,263.2,30.8,262.3,29.4"/>
<path d="M304.9,22.1c0.1,0,0.3,0,0.5,0v6.2c-0.4,0-0.7-0.1-1-0.1c-0.3,0-0.5,0-0.7,0c-2.4,0-4.1,0.8-4.9,2.4
	c-0.5,0.9-0.7,2.3-0.7,4.1v11.1H292V22.6h5.8v4c0.9-1.5,1.7-2.6,2.4-3.2c1.1-0.9,2.6-1.4,4.4-1.4C304.7,22.1,304.8,22.1,304.9,22.1"
	/>
<path d="M316,19.8h-6.1v-5.6h6.1V19.8z M309.9,22.6h6.1v23.1h-6.1V22.6z"/>
<path d="M319.9,27.1v-4.3h3.2v-6.4h6v6.4h3.8v4.3h-3.8v12.2c0,0.9,0.1,1.5,0.4,1.8c0.2,0.2,1,0.3,2.2,0.3c0.2,0,0.4,0,0.6,0
	c0.2,0,0.4,0,0.6,0v4.5L330,46c-2.9,0.1-4.8-0.4-5.9-1.5c-0.7-0.7-1-1.8-1-3.2V27.1H319.9z"/>
<path d="M339.6,39.5c1.2,0.9,2.2,1.5,3.1,1.8c0.9,0.4,1.9,0.5,2.9,0.5c1.3,0,2.2-0.2,2.9-0.7c0.6-0.5,0.9-1,0.9-1.6
	c0-0.6-0.3-1.1-0.8-1.6c-0.5-0.5-1.7-0.9-3.6-1.2c-3-0.5-5.2-1.4-6.4-2.7c-1.3-1.3-1.9-2.8-1.9-4.6c0-1.9,0.8-3.5,2.5-5
	c1.6-1.5,3.8-2.2,6.4-2.2c1.5,0,2.9,0.2,4.3,0.7c1.3,0.5,2.8,1.3,4.4,2.6l-3.4,2.8c-1.6-1-2.7-1.6-3.4-1.8c-0.6-0.2-1.2-0.3-1.9-0.3
	c-1,0-1.9,0.3-2.5,0.8c-0.6,0.6-1,1.2-1,1.9c0,0.6,0.3,1.2,0.8,1.7c0.5,0.5,1.8,0.9,3.9,1.4c2.9,0.6,4.8,1.3,6,2.2
	c1.6,1.2,2.4,2.7,2.4,4.6c0,2.1-0.8,3.8-2.5,5.2c-1.6,1.4-4,2.2-7.1,2.2c-1.9,0-3.7-0.3-5.1-1c-1.5-0.7-2.9-1.7-4.3-3.2L339.6,39.5z
	"/>
<path d="M172.6,22.6v3.3c-0.9-1.6-2.1-2.7-3.6-3.4c-0.9-0.4-1.9-0.5-3-0.5c-3.1,0-5.6,1.2-7.3,3.5c-1.7,2.3-2.6,5.2-2.6,8.7
	c0,3.6,0.9,6.4,2.7,8.5c1.8,2.1,4.1,3.1,7.1,3.1c1.9,0,3.5-0.5,4.7-1.4c0.7-0.5,1.3-1.2,1.9-2.2V46c-0.1,2.3-0.9,3.9-2.3,4.9
	c-0.9,0.6-2,0.9-3.2,0.9c-1.3,0-2.4-0.4-3.2-1.1c-0.5-0.4-0.8-0.9-1.2-1.6h-5.8c0.2,1.4,0.9,2.8,2.2,4.2c2,2.2,4.8,3.4,8.3,3.4
	c3,0,5.6-0.9,7.8-2.8c2.3-1.9,3.4-5,3.4-9.3V22.6H172.6z M171.1,39.2c-1,1.1-2.2,1.6-3.6,1.6c-2.1,0-3.6-1-4.4-2.9
	c-0.4-1-0.7-2.2-0.7-3.6c0-1.6,0.2-2.9,0.6-3.9c0.8-2,2.3-3,4.4-3c1.5,0,2.8,0.6,3.7,1.7c0.9,1.1,1.4,2.8,1.4,5
	C172.6,36.4,172.1,38.1,171.1,39.2"/>
<rect x="358" y="40.2" width="6.1" height="5.6"/>
<path class="st0" d="M282.6,8.6h-4.9l-0.6,7.9c-0.1,0.9-0.7,2.3-1.3,3l-0.7,0.7c-0.6,0.7-1.2,2-1.2,3v20.9c0,0.9,0.8,1.7,1.7,1.7h9
	c0.9,0,1.7-0.8,1.7-1.7V23.2c0-1-0.5-2.3-1.2-3l-0.7-0.7c-0.6-0.7-1.2-2-1.3-3L282.6,8.6z"/>
<rect x="277.5" class="st1" width="5.4" height="6.1"/>
</svg>
